<?xml version="1.0" encoding="UTF-8"?>
<svg version="1.1" xmlns="http://www.w3.org/2000/svg" width="200" height="100">
<path d="M0 0 C1.30475618 2.60951236 1.11301572 4.52701285 1.09765625 7.4453125 C1.09515869 8.41484863 1.09266113 9.38438477 1.09008789 10.38330078 C1.08098389 11.61806152 1.07187988 12.85282227 1.0625 14.125 C1.041875 18.04375 1.02125 21.9625 1 26 C-7.91 26 -16.82 26 -26 26 C-26.020625 22.060625 -26.04125 18.12125 -26.0625 14.0625 C-26.07615601 12.19670288 -26.07615601 12.19670288 -26.09008789 10.29321289 C-26.09383423 8.83516235 -26.09383423 8.83516235 -26.09765625 7.34765625 C-26.10289307 6.34742432 -26.10812988 5.34719238 -26.11352539 4.31665039 C-26 2 -26 2 -25 1 C-16.70093946 -0.0422076 -8.35151467 -0.13542997 0 0 Z M-18 7 C-18.020625 8.44375 -18.04125 9.8875 -18.0625 11.375 C-18.07410156 12.18710937 -18.08570313 12.99921875 -18.09765625 13.8359375 C-18.14466334 16.04937142 -18.14466334 16.04937142 -17 18 C-13.7 18 -10.4 18 -7 18 C-7 14.37 -7 10.74 -7 7 C-10.63 7 -14.26 7 -18 7 Z " fill="#8ABEE2" transform="translate(155,32)"/>
<path d="M0 0 C0 6.93 0 13.86 0 21 C-1.98 21 -3.96 21 -6 21 C-7 20 -7 20 -7.09765625 16.83984375 C-7.08605469 15.55207031 -7.07445313 14.26429687 -7.0625 12.9375 C-7.05347656 11.64714844 -7.04445313 10.35679688 -7.03515625 9.02734375 C-7.02355469 8.02832031 -7.01195313 7.02929688 -7 6 C-7.99 6 -8.98 6 -10 6 C-10 10.62 -10 15.24 -10 20 C-12.31 20 -14.62 20 -17 20 C-17 16.04 -17 12.08 -17 8 C-17.99 8 -18.98 8 -20 8 C-19.98839844 8.85464844 -19.97679687 9.70929687 -19.96484375 10.58984375 C-19.95582031 11.69457031 -19.94679688 12.79929687 -19.9375 13.9375 C-19.92589844 15.03964844 -19.91429687 16.14179687 -19.90234375 17.27734375 C-20 20 -20 20 -21 21 C-22.99958364 21.04080783 -25.00045254 21.04254356 -27 21 C-27.02734857 18.97924434 -27.0465517 16.95837779 -27.0625 14.9375 C-27.07410156 13.81214844 -27.08570313 12.68679687 -27.09765625 11.52734375 C-26.9985415 7.94731887 -26.57153313 4.53270476 -26 1 C-22.22921314 0.83227069 -18.45836341 0.66599875 -14.6875 0.5 C-13.61564453 0.45230469 -12.54378906 0.40460937 -11.43945312 0.35546875 C-9.89741211 0.28779297 -9.89741211 0.28779297 -8.32421875 0.21875 C-7.37635498 0.17685547 -6.42849121 0.13496094 -5.4519043 0.09179688 C-3.63561776 0.0237969 -1.81755902 0 0 0 Z " fill="#BC5756" transform="translate(76,36)"/>
<path d="M0 0 C2.64 0 5.28 0 8 0 C8.66 1.65 9.32 3.3 10 5 C11.93798263 2.22739701 11.93798263 2.22739701 13 0 C15.97 0 18.94 0 22 0 C19.93991112 6.72239529 17.28217236 12.78592664 14 19 C11.36 19 8.72 19 6 19 C4.99141578 16.58660204 3.99297327 14.16981325 3 11.75 C2.57074219 10.72712891 2.57074219 10.72712891 2.1328125 9.68359375 C0.70654506 6.18584265 0 3.83099811 0 0 Z " fill="#80AE4C" transform="translate(88,38)"/>
<path d="M0 0 C5.28 0 10.56 0 16 0 C16 3.3 16 6.6 16 10 C13.69 10 11.38 10 9 10 C8.67 13.63 8.34 17.26 8 21 C5.36 21 2.72 21 0 21 C0 14.07 0 7.14 0 0 Z " fill="#D4B659" transform="translate(112,36)"/>
<path d="M0 0 C2.31 0 4.62 0 7 0 C7 6.6 7 13.2 7 20 C4.36 20 1.72 20 -1 20 C-0.67 13.4 -0.34 6.8 0 0 Z " fill="#E29D35" transform="translate(79,36)"/>
<path d="M0 0 C2.97 0 5.94 0 9 0 C9 2.64 9 5.28 9 8 C6.36 8.33 3.72 8.66 1 9 C0.67 6.03 0.34 3.06 0 0 Z " fill="#BC8637" transform="translate(78,26)"/>
<path d="M0 0 C0.66 0.33 1.32 0.66 2 1 C2 5.62 2 10.24 2 15 C0.02 15 -1.96 15 -4 15 C-3.5253725 12.6865641 -3.04517721 10.37426981 -2.5625 8.0625 C-2.29566406 6.77472656 -2.02882812 5.48695312 -1.75390625 4.16015625 C-1 1 -1 1 0 0 Z " fill="#DA595A" transform="translate(63,41)"/>
<path d="M0 0 C2.64 0 5.28 0 8 0 C7.34 1.98 6.68 3.96 6 6 C4.35 5.67 2.7 5.34 1 5 C0.67 3.35 0.34 1.7 0 0 Z " fill="#474748" transform="translate(124,64)"/>
<path d="M0 0 C1.65 0 3.3 0 5 0 C5 1.98 5 3.96 5 6 C3.35 6 1.7 6 0 6 C0 4.02 0 2.04 0 0 Z " fill="#404040" transform="translate(110,64)"/>
<path d="M0 0 C1.65 0 3.3 0 5 0 C5 1.98 5 3.96 5 6 C3.35 6 1.7 6 0 6 C0 4.02 0 2.04 0 0 Z " fill="#3D3D3D" transform="translate(75,64)"/>
<path d="M0 0 C1.98 0.495 1.98 0.495 4 1 C4.33 2.32 4.66 3.64 5 5 C3.35 5.33 1.7 5.66 0 6 C-1.125 2.25 -1.125 2.25 0 0 Z M1 2 C1 2.66 1 3.32 1 4 C1.66 4 2.32 4 3 4 C3 3.34 3 2.68 3 2 C2.34 2 1.68 2 1 2 Z " fill="#4C4B4C" transform="translate(118,64)"/>
<path d="M0 0 C1.32 0 2.64 0 4 0 C4 1.98 4 3.96 4 6 C2.68 6 1.36 6 0 6 C0 4.02 0 2.04 0 0 Z " fill="#4C4C4C" transform="translate(104,64)"/>
<path d="M0 0 C1.98 0.495 1.98 0.495 4 1 C4 1.66 4 2.32 4 3 C3.01 3.33 2.02 3.66 1 4 C1.99 4 2.98 4 4 4 C4 4.66 4 5.32 4 6 C2.35 5.67 0.7 5.34 -1 5 C-0.67 3.35 -0.34 1.7 0 0 Z " fill="#464646" transform="translate(62,64)"/>
<path d="M0 0 C0.99 0.33 1.98 0.66 3 1 C3 2.65 3 4.3 3 6 C1.68 6 0.36 6 -1 6 C-1.042721 4.33388095 -1.04063832 2.66617115 -1 1 C-0.67 0.67 -0.34 0.34 0 0 Z " fill="#575758" transform="translate(56,64)"/>
<path d="M0 0 C0.66 0 1.32 0 2 0 C2.66 1.98 3.32 3.96 4 6 C2.02 6 0.04 6 -2 6 C-1.34 4.02 -0.68 2.04 0 0 Z " fill="#454545" transform="translate(70,64)"/>
<path d="M0 0 C1.65 0 3.3 0 5 0 C5 0.66 5 1.32 5 2 C4.34 2 3.68 2 3 2 C3 3.32 3 4.64 3 6 C2.34 6 1.68 6 1 6 C0.67 4.02 0.34 2.04 0 0 Z " fill="#3F4040" transform="translate(141,64)"/>
<path d="M0 0 C1.32 0 2.64 0 4 0 C3.67 1.98 3.34 3.96 3 6 C2.34 6 1.68 6 1 6 C0.67 4.02 0.34 2.04 0 0 Z " fill="#464646" transform="translate(90,64)"/>
<path d="M0 0 C0.66 0 1.32 0 2 0 C2 1.98 2 3.96 2 6 C1.34 6 0.68 6 0 6 C0 4.02 0 2.04 0 0 Z " fill="#4C4C4C" transform="translate(86,64)"/>
<path d="M0 0 C0.99 0.495 0.99 0.495 2 1 C1.67 2.65 1.34 4.3 1 6 C0.67 6 0.34 6 0 6 C0 4.02 0 2.04 0 0 Z " fill="#444445" transform="translate(138,64)"/>
<path d="M0 0 C0.66 0 1.32 0 2 0 C2 0.66 2 1.32 2 2 C1.34 2 0.68 2 0 2 C0 1.34 0 0.68 0 0 Z " fill="#2E2E2E" transform="translate(96,68)"/>
<path d="M0 0 C0.66 0 1.32 0 2 0 C2 0.66 2 1.32 2 2 C1.34 2 0.68 2 0 2 C0 1.34 0 0.68 0 0 Z " fill="#292929" transform="translate(147,68)"/>
</svg>
